<?xml version="1.0" encoding="UTF-8"?>
<!DOCTYPE svg PUBLIC "-//W3C//DTD SVG 1.1//EN" "http://www.w3.org/Graphics/SVG/1.1/DTD/svg11.dtd">
<!-- Creator: CorelDRAW X7 -->
<svg xmlns="http://www.w3.org/2000/svg" xml:space="preserve" width="8.4666mm" height="8.4666mm" version="1.1" style="shape-rendering:geometricPrecision; text-rendering:geometricPrecision; image-rendering:optimizeQuality; fill-rule:evenodd; clip-rule:evenodd"
viewBox="0 0 847 847"
 xmlns:xlink="http://www.w3.org/1999/xlink">
 <defs>
  <style type="text/css">
   <![CDATA[
    .str0 {stroke:#E6E6E6;stroke-width:42.33}
    .fil2 {fill:none}
    .fil0 {fill:#0070BD}
    .fil1 {fill:#E6E6E6}
   ]]>
  </style>
 </defs>
 <g id="Слой_x0020_1">
  <metadata id="CorelCorpID_0Corel-Layer"/>
  <path class="fil0" d="M423 8c-229,0 -415,186 -415,415 0,230 186,415 415,415 229,0 415,-185 415,-415 0,-229 -186,-415 -415,-415z"/>
  <path class="fil1" d="M423 130c-122,0 -221,99 -221,221 0,64 32,121 63,174 38,67 84,128 137,183 12,12 31,12 42,0 47,-46 88,-99 123,-154 37,-60 78,-130 78,-203 -1,-122 -100,-221 -222,-221zm0 48c-102,0 -185,83 -185,185 0,53 27,101 53,146 32,55 70,107 115,152 9,10 25,10 35,0 39,-38 74,-82 103,-129 31,-50 65,-108 65,-169 -1,-102 -84,-185 -186,-185z"/>
  <g id="_200787616">
   <g>
   </g>
   <g>
   </g>
   <g>
   </g>
   <g>
   </g>
   <g>
   </g>
   <g>
   </g>
   <g>
   </g>
   <g>
   </g>
   <g>
   </g>
   <g>
   </g>
   <g>
   </g>
   <g>
   </g>
   <g>
   </g>
   <g>
   </g>
   <g>
   </g>
  </g>
  <g id="_2093121314304">
   <g>
   </g>
   <g>
   </g>
   <g>
   </g>
   <g>
   </g>
   <g>
   </g>
   <g>
   </g>
   <g>
   </g>
   <g>
   </g>
   <g>
   </g>
   <g>
   </g>
   <g>
   </g>
   <g>
   </g>
   <g>
   </g>
   <g>
   </g>
   <g>
   </g>
  </g>
  <circle class="fil2 str0" cx="423" cy="340" r="99"/>
 </g>
</svg>
