<?xml version="1.0" encoding="UTF-8"?>
<!DOCTYPE svg PUBLIC "-//W3C//DTD SVG 1.1//EN" "http://www.w3.org/Graphics/SVG/1.1/DTD/svg11.dtd">
<!-- Creator: CorelDRAW X6 -->
<svg xmlns="http://www.w3.org/2000/svg" xml:space="preserve" width="8.297mm" height="8.297mm" version="1.1" style="shape-rendering:geometricPrecision; text-rendering:geometricPrecision; image-rendering:optimizeQuality; fill-rule:evenodd; clip-rule:evenodd"
viewBox="0 0 830 830"
 xmlns:xlink="http://www.w3.org/1999/xlink">
 <defs>
  <style type="text/css">
   <![CDATA[
    .fil1 {fill:#FEFEFE}
    .fil0 {fill:#0070BD}
   ]]>
  </style>
 </defs>
 <g id="Слой_x0020_1">
  <metadata id="CorelCorpID_0Corel-Layer"/>
  <path class="fil0" d="M414 0c-229,0 -414,185 -414,414 0,230 185,415 414,415 229,0 415,-185 415,-415 0,-229 -186,-414 -415,-414z"/>
  <g id="_858232960">
   <g>
    <path class="fil1" d="M578 300l-10 0 0 -76c0,-8 -6,-14 -13,-14l-181 0c-8,0 -14,6 -14,14l0 76 -18 0 0 -9c0,-7 -6,-14 -14,-14l-90 0c-8,0 -14,7 -14,14l0 272c0,7 6,13 14,13l32 0 0 9c0,20 17,36 38,36l86 0c21,0 39,-17 39,-38l0 -29 145 0c8,0 14,-7 14,-14l0 -226c0,-8 -6,-14 -14,-14zm-191 -62l154 0 0 62 -154 0 0 -62zm-135 67l63 0 0 244 -63 0 0 -244zm153 278c0,6 -5,11 -11,11l-86 0c-6,0 -11,-4 -11,-9l0 -9 31 0c8,0 14,-6 14,-13l0 -9 63 0 0 29zm160 -57l-223 0 0 -199 223 0 0 199z"/>
    <path class="fil1" d="M509 395l23 0c8,0 14,-6 14,-13 0,-8 -6,-14 -14,-14l-23 0c-7,0 -13,6 -13,14 0,7 6,13 13,13z"/>
    <path class="fil1" d="M442 395l22 0c8,0 14,-6 14,-13 0,-8 -6,-14 -14,-14l-22 0c-8,0 -14,6 -14,14 0,7 6,13 14,13z"/>
    <path class="fil1" d="M374 395l22 0c8,0 14,-6 14,-13 0,-8 -6,-14 -14,-14l-22 0c-8,0 -14,6 -14,14 0,7 6,13 14,13z"/>
    <path class="fil1" d="M509 441l23 0c8,0 14,-7 14,-14 0,-8 -6,-14 -14,-14l-23 0c-7,0 -13,6 -13,14 0,7 6,14 13,14z"/>
    <path class="fil1" d="M442 441l22 0c8,0 14,-7 14,-14 0,-8 -6,-14 -14,-14l-22 0c-8,0 -14,6 -14,14 0,7 6,14 14,14z"/>
    <path class="fil1" d="M374 441l22 0c8,0 14,-7 14,-14 0,-8 -6,-14 -14,-14l-22 0c-8,0 -14,6 -14,14 0,7 6,14 14,14z"/>
    <path class="fil1" d="M509 486l23 0c8,0 14,-6 14,-14 0,-8 -6,-14 -14,-14l-23 0c-7,0 -13,6 -13,14 0,8 6,14 13,14z"/>
    <path class="fil1" d="M442 486l22 0c8,0 14,-6 14,-14 0,-8 -6,-14 -14,-14l-22 0c-8,0 -14,6 -14,14 0,8 6,14 14,14z"/>
    <path class="fil1" d="M374 486l22 0c8,0 14,-6 14,-14 0,-8 -6,-14 -14,-14l-22 0c-8,0 -14,6 -14,14 0,8 6,14 14,14z"/>
    <path class="fil1" d="M509 255l-90 0c-8,0 -14,6 -14,14 0,7 6,13 14,13l90 0c8,0 14,-6 14,-13 0,-8 -6,-14 -14,-14z"/>
   </g>
   <g>
   </g>
   <g>
   </g>
   <g>
   </g>
   <g>
   </g>
   <g>
   </g>
   <g>
   </g>
   <g>
   </g>
   <g>
   </g>
   <g>
   </g>
   <g>
   </g>
   <g>
   </g>
   <g>
   </g>
   <g>
   </g>
   <g>
   </g>
   <g>
   </g>
  </g>
 </g>
</svg>
