<?xml version="1.0" encoding="UTF-8"?>
<!DOCTYPE svg PUBLIC "-//W3C//DTD SVG 1.1//EN" "http://www.w3.org/Graphics/SVG/1.1/DTD/svg11.dtd">
<!-- Creator: CorelDRAW X7 -->
<svg xmlns="http://www.w3.org/2000/svg" xml:space="preserve" width="84.6666mm" height="84.6666mm" version="1.1" style="shape-rendering:geometricPrecision; text-rendering:geometricPrecision; image-rendering:optimizeQuality; fill-rule:evenodd; clip-rule:evenodd"
viewBox="0 0 8467 8467"
 xmlns:xlink="http://www.w3.org/1999/xlink">
 <defs>
  <style type="text/css">
   <![CDATA[
    .str0 {stroke:#0071BC;stroke-width:169.33}
    .str1 {stroke:white;stroke-width:169.33}
    .fil1 {fill:#0071BC}
    .fil0 {fill:#0071BC}
    .fil3 {fill:#92A78C;fill-rule:nonzero}
    .fil2 {fill:white;fill-rule:nonzero}
   ]]>
  </style>
 </defs>
 <g id="Слой_x0020_1">
  <metadata id="CorelCorpID_0Corel-Layer"/>
  <circle class="fil0 str0" cx="4233" cy="4233" r="3844"/>
  <circle class="fil1 str1" cx="4233" cy="4233" r="3446"/>
  <path class="fil2" d="M5869 3418c-296,106 -1051,205 -1343,322 2,22 3,45 3,68 0,515 -418,934 -934,934 -1,0 -2,-1 -2,-1l0 807c185,87 389,136 600,136 1091,0 1876,-719 1876,-1528 0,-269 -73,-521 -200,-738z"/>
  <path class="fil2" d="M6053 3940c85,580 -689,1171 -1033,1171 -345,0 -398,-794 -494,-1371 -83,-503 152,-713 494,-751 359,-40 905,75 1033,951z"/>
  <path class="fil2" d="M3989 5111c0,213 -203,526 -396,437 -280,-129 -413,-275 -387,-486 30,-244 176,-320 389,-320 213,0 394,156 394,369z"/>
  <path class="fil2" d="M4517 3676c0,0 -47,-476 -227,-672 -249,-272 -43,-769 -43,-769l348 0c0,0 -177,674 251,830 428,157 221,901 221,901l-550 -290z"/>
  <path class="fil2" d="M3760 4742c0,0 -1360,-456 -1721,411 -222,531 63,883 63,883l360 -122c0,0 -202,-471 0,-657 317,-291 867,126 867,126l431 -641z"/>
  <path class="fil3" d="M3800 4850c0,0 30,30 59,87 15,29 29,64 38,104 4,20 8,41 8,63 0,22 -1,44 -6,66 -10,45 -33,87 -63,116 -15,15 -31,27 -47,37 -16,11 -33,18 -47,24 -30,12 -56,17 -75,20 -18,3 -28,4 -28,4 0,0 9,-4 26,-13 16,-7 39,-19 64,-35 13,-8 27,-17 39,-28 13,-11 26,-23 37,-37 12,-13 21,-29 30,-45 8,-17 15,-34 18,-53 17,-74 -2,-154 -19,-213 -17,-58 -34,-97 -34,-97z"/>
  <path class="fil3" d="M4520 3418c0,0 9,-1 24,-3 15,-3 37,-7 62,-13 13,-3 26,-7 40,-12 14,-3 28,-10 43,-15 14,-7 29,-13 43,-21l22 -12 21 -14c14,-8 26,-20 39,-30 12,-10 23,-22 34,-33 11,-11 20,-24 29,-35 10,-11 16,-24 24,-34 7,-11 14,-20 19,-30 5,-9 10,-18 13,-24 8,-14 13,-22 13,-22 0,0 -1,9 -4,25 -1,8 -3,17 -6,28 -1,11 -6,22 -11,35 -6,13 -9,28 -18,41 -9,13 -16,29 -27,42 -12,13 -21,29 -36,40 -14,13 -27,26 -43,36 -8,5 -16,10 -24,15l-24 12c-17,10 -35,13 -51,20 -16,4 -33,9 -48,10 -16,3 -31,4 -45,4 -54,2 -89,-10 -89,-10z"/>
 </g>
</svg>
