<?xml version="1.0" encoding="UTF-8"?>
<!DOCTYPE svg PUBLIC "-//W3C//DTD SVG 1.1//EN" "http://www.w3.org/Graphics/SVG/1.1/DTD/svg11.dtd">
<!-- Creator: CorelDRAW X7 -->
<svg xmlns="http://www.w3.org/2000/svg" xml:space="preserve" width="84.6666mm" height="84.6666mm" version="1.1" style="shape-rendering:geometricPrecision; text-rendering:geometricPrecision; image-rendering:optimizeQuality; fill-rule:evenodd; clip-rule:evenodd"
viewBox="0 0 8467 8467"
 xmlns:xlink="http://www.w3.org/1999/xlink">
 <defs>
  <style type="text/css">
   <![CDATA[
    .str0 {stroke:#0071BC;stroke-width:169.33}
    .str1 {stroke:white;stroke-width:169.33}
    .fil1 {fill:#0071BC}
    .fil0 {fill:#0071BC}
    .fil3 {fill:#92A78C;fill-rule:nonzero}
    .fil2 {fill:white;fill-rule:nonzero}
   ]]>
  </style>
 </defs>
 <g id="Слой_x0020_1">
  <metadata id="CorelCorpID_0Corel-Layer"/>
  <circle class="fil0 str0" cx="4233" cy="4233" r="3844"/>
  <circle class="fil1 str1" cx="4233" cy="4233" r="3446"/>
  <path class="fil2" d="M3394 6556c2,23 3,48 3,72 0,76 -9,150 -25,222l1654 0c-4,-39 -9,-77 -15,-115 -145,-900 -716,-1018 -1093,-976 -84,9 -163,29 -232,59 -96,-48 -296,-324 -168,-688 368,-1052 791,-3462 791,-3462l-477 0c-142,1136 -390,2231 -734,3290 0,0 -219,528 45,816 176,193 233,638 241,705l0 6 1 3 0 0c2,22 5,44 9,68z"/>
  <path class="fil3" d="M3402 6174c0,0 10,-1 28,-4 17,-3 41,-8 70,-15 14,-3 29,-8 45,-13 16,-4 32,-12 49,-17 16,-8 33,-14 49,-24l25 -13 23 -16c16,-10 30,-22 44,-34 15,-12 27,-26 39,-38 13,-13 22,-27 33,-40 12,-12 19,-26 27,-38 8,-12 17,-23 22,-34 6,-11 11,-20 15,-28 9,-15 14,-24 14,-24 0,0 -1,10 -4,28 -2,9 -4,19 -6,32 -2,12 -8,25 -14,40 -6,14 -10,31 -20,46 -10,15 -18,33 -31,48 -13,14 -24,32 -40,46 -16,13 -31,28 -49,40 -9,5 -18,11 -27,17l-28 14c-18,10 -39,15 -57,22 -19,5 -37,10 -55,12 -18,3 -35,4 -50,4 -62,3 -102,-11 -102,-11z"/>
 </g>
</svg>
