<?xml version="1.0" encoding="UTF-8"?>
<!DOCTYPE svg PUBLIC "-//W3C//DTD SVG 1.1//EN" "http://www.w3.org/Graphics/SVG/1.1/DTD/svg11.dtd">
<!-- Creator: CorelDRAW X7 -->
<svg xmlns="http://www.w3.org/2000/svg" xml:space="preserve" width="8.4666mm" height="8.4666mm" version="1.1" style="shape-rendering:geometricPrecision; text-rendering:geometricPrecision; image-rendering:optimizeQuality; fill-rule:evenodd; clip-rule:evenodd"
viewBox="0 0 847 847"
 xmlns:xlink="http://www.w3.org/1999/xlink">
 <defs>
  <style type="text/css">
   <![CDATA[
    .fil0 {fill:#0070BD}
    .fil1 {fill:#FEFEFE}
   ]]>
  </style>
 </defs>
 <g id="Слой_x0020_1">
  <metadata id="CorelCorpID_0Corel-Layer"/>
  <path class="fil0" d="M423 8c-229,0 -415,186 -415,415 0,230 186,415 415,415 229,0 415,-185 415,-415 0,-229 -186,-415 -415,-415z"/>
  <g id="_200787616">
   <g>
    <g>
     <path class="fil1" d="M640 532l-57 -57c-15,-16 -41,-16 -57,0l-25 26c-12,12 -32,12 -43,0l-112 -112c-12,-12 -12,-31 0,-43 4,-4 16,-16 25,-26 16,-16 16,-41 0,-57l-56 -56c-16,-16 -42,-16 -57,-1 -12,12 -16,16 -21,21 -56,57 -56,148 0,205l178 177c56,57 148,57 205,0l20 -20c16,-16 16,-41 0,-57l0 0zm-363 -307c5,-5 13,-5 19,0l56 57c6,5 6,14 0,19l-9 10 -76 -76 10 -10zm156 366l-177 -178c-44,-44 -46,-112 -7,-159l75 76c-20,22 -19,56 3,78l112 112c0,0 0,0 0,0 21,21 55,22 78,2l75 76c-46,39 -115,37 -159,-7zm188 -21l-9 9 -76 -75 9 -10c6,-5 14,-5 19,0l57 57c5,5 5,14 0,19z"/>
    </g>
   </g>
   <g>
   </g>
   <g>
   </g>
   <g>
   </g>
   <g>
   </g>
   <g>
   </g>
   <g>
   </g>
   <g>
   </g>
   <g>
   </g>
   <g>
   </g>
   <g>
   </g>
   <g>
   </g>
   <g>
   </g>
   <g>
   </g>
   <g>
   </g>
   <g>
   </g>
  </g>
 </g>
</svg>
