<?xml version="1.0" encoding="UTF-8"?>
<!DOCTYPE svg PUBLIC "-//W3C//DTD SVG 1.1//EN" "http://www.w3.org/Graphics/SVG/1.1/DTD/svg11.dtd">
<!-- Creator: CorelDRAW X6 -->
<svg xmlns="http://www.w3.org/2000/svg" xml:space="preserve" width="135.467mm" height="135.463mm" version="1.1" style="shape-rendering:geometricPrecision; text-rendering:geometricPrecision; image-rendering:optimizeQuality; fill-rule:evenodd; clip-rule:evenodd"
viewBox="0 0 13547 13546"
 xmlns:xlink="http://www.w3.org/1999/xlink"
 enable-background="new 0 0 512.014 512.014">
 <defs>
  <style type="text/css">
   <![CDATA[
    .fil0 {fill:#FEFEFE}
   ]]>
  </style>
 </defs>
 <g id="Слой_x0020_1">
  <metadata id="CorelCorpID_0Corel-Layer"/>
  <g id="_184739856">
   <path class="fil0" d="M13199 1213c-328,-434 -829,-684 -1373,-684l-231 0 0 -132c0,-219 -177,-397 -397,-397 -219,0 -397,178 -397,397l0 1058c0,219 178,397 397,397 220,0 397,-178 397,-397l0 -132 231 0c293,0 562,134 739,368 177,234 232,530 151,812l-1053 3687c-294,1029 -1247,1747 -2317,1747 -1070,0 -2022,-718 -2316,-1747l-1053 -3687c-81,-282 -26,-578 151,-812 176,-234 446,-368 739,-368l230 0 0 132c0,219 178,397 397,397 219,0 397,-178 397,-397l0 -1058c0,-219 -178,-397 -397,-397 -219,0 -397,178 -397,397l0 132 -230 0c-545,0 -1045,250 -1373,684 -328,435 -430,985 -281,1508l1054 3687c192,675 590,1255 1151,1677 120,91 245,172 374,244l1157 2732 0 286c0,775 -630,1406 -1405,1406 -775,0 -1406,-631 -1406,-1406l0 -2722c0,-1254 -1021,-2275 -2275,-2275 -1255,0 -2276,1021 -2276,2275l0 940c-904,184 -1587,986 -1587,1944 0,1094 890,1984 1984,1984 1095,0 1985,-890 1985,-1984 0,-958 -683,-1760 -1588,-1944l0 -940c0,-817 665,-1481 1482,-1481 817,0 1481,664 1481,1481l0 2722c0,1213 987,2199 2200,2199 1213,0 2199,-986 2199,-2199l0 -286 1158 -2732c129,-72 254,-153 374,-244 560,-422 958,-1002 1151,-1677l1053 -3687c150,-523 48,-1073 -280,-1508l0 0zm-10024 10296c0,657 -534,1191 -1191,1191 -656,0 -1190,-534 -1190,-1191 0,-656 534,-1191 1190,-1191 657,0 1191,535 1191,1191zm6171 -1546l-541 -1278c177,30 358,46 541,46 184,0 364,-16 541,-46l-541 1278z"/>
   <circle class="fil0" cx="1984" cy="11509" r="397"/>
  </g>
 </g>
</svg>
