<svg width="30" height="30" viewBox="0 0 30 30" fill="none" xmlns="http://www.w3.org/2000/svg">
<path fill-rule="evenodd" clip-rule="evenodd" d="M15 30C23.2843 30 30 23.2843 30 15C30 6.71573 23.2843 0 15 0C6.71573 0 0 6.71573 0 15C0 23.2843 6.71573 30 15 30ZM20.9016 17.4965C21.3595 17.94 21.8175 18.3834 22.2238 18.8796C22.4704 19.189 22.683 19.525 22.8578 19.8816C23.1121 20.3899 22.8828 20.9458 22.4351 20.9787H19.6701C19.3415 21.0042 19.0116 20.9514 18.7064 20.8245C18.4012 20.6975 18.1291 20.5 17.9115 20.2473C17.5949 19.9241 17.2995 19.584 17.0081 19.2485C16.9402 19.1703 16.8725 19.0924 16.8047 19.0149C16.6581 18.8431 16.4908 18.6908 16.3069 18.5615C16.2371 18.4985 16.1534 18.4537 16.063 18.4309C15.9725 18.4081 15.8781 18.408 15.7876 18.4307C15.6971 18.4533 15.6134 18.498 15.5435 18.5609C15.4736 18.6238 15.4197 18.7031 15.3864 18.7919C15.1889 19.201 15.0894 19.6523 15.0963 20.1084C15.064 20.7739 14.8671 20.9495 14.2116 20.9787C12.8438 21.0862 11.4749 20.7851 10.2718 20.112C9.21658 19.4603 8.30842 18.5879 7.60702 17.5522C6.21916 15.5598 5.04369 13.4218 4.10058 11.1745C3.86777 10.6698 4.04326 10.3919 4.58409 10.3919C5.19536 10.3797 5.7939 10.3838 6.39244 10.3879C6.6917 10.3899 6.99097 10.3919 7.29183 10.3919C7.46095 10.3925 7.62539 10.4487 7.76083 10.5521C7.89628 10.6555 7.99555 10.8006 8.04397 10.966C8.52181 12.192 9.13847 13.3568 9.88137 14.4365C10.0629 14.7373 10.2972 15.0014 10.5726 15.2154C10.6258 15.2727 10.6934 15.3139 10.768 15.3344C10.8427 15.355 10.9214 15.354 10.9956 15.3317C11.0697 15.3093 11.1364 15.2665 11.1881 15.2079C11.2399 15.1493 11.2748 15.0772 11.289 14.9996C11.3804 14.7661 11.4348 14.5192 11.4501 14.2683C11.5337 13.4161 11.5181 12.5568 11.4036 11.7084C11.3864 11.4671 11.2889 11.2391 11.1274 11.0622C10.9658 10.8853 10.7498 10.7701 10.5153 10.7357C10.2503 10.6845 10.2897 10.5857 10.4186 10.4285C10.5144 10.2911 10.6421 10.1801 10.7903 10.1054C10.9384 10.0307 11.1024 9.99474 11.2675 10.0006H14.3943C14.885 10.103 14.996 10.3261 15.0641 10.8344V14.3889C15.0605 14.5864 15.15 15.1642 15.5082 15.2959C15.7628 15.3837 15.9513 15.1779 16.1118 15.0028C16.1183 14.9956 16.1249 14.9884 16.1314 14.9814C16.85 14.1564 17.4429 13.2256 17.89 12.2204C18.1013 11.7852 18.284 11.3317 18.4595 10.8783C18.5032 10.7233 18.5989 10.5889 18.7298 10.4986C18.8608 10.4084 19.0186 10.368 19.1758 10.3846H22.1844C22.2726 10.3773 22.3612 10.3773 22.4495 10.3846C22.958 10.4687 23.0942 10.6954 22.9401 11.2001C22.6585 11.9661 22.2582 12.681 21.7546 13.3175C21.5258 13.6389 21.2911 13.955 21.0566 14.271C20.7734 14.6525 20.4904 15.0338 20.2181 15.4238C19.7596 16.0784 19.7954 16.4039 20.3649 16.9707C20.5417 17.1481 20.7216 17.3223 20.9016 17.4965Z" fill="white"/>
</svg>
