<svg xmlns="http://www.w3.org/2000/svg" width="32" height="32" viewBox="0 0 847 847" shape-rendering="geometricPrecision" text-rendering="geometricPrecision" image-rendering="optimizeQuality" fill-rule="evenodd" clip-rule="evenodd"><path d="M423 8C194 8 8 194 8 423c0 230 186 415 415 415s415-185 415-415C838 194 652 8 423 8z" fill="#0070bd"/><path d="M423 130c-122 0-221 99-221 221 0 64 32 121 63 174 38 67 84 128 137 183 12 12 31 12 42 0 47-46 88-99 123-154 37-60 78-130 78-203-1-122-100-221-222-221zm0 48c-102 0-185 83-185 185 0 53 27 101 53 146 32 55 70 107 115 152 9 10 25 10 35 0 39-38 74-82 103-129 31-50 65-108 65-169-1-102-84-185-186-185z" fill="#e6e6e6"/><circle cx="423" cy="340" r="99" fill="none" stroke="#e6e6e6" stroke-width="42.33"/></svg>