<svg xmlns="http://www.w3.org/2000/svg" width="31.359" height="31.359" viewBox="0 0 830 830" shape-rendering="geometricPrecision" text-rendering="geometricPrecision" image-rendering="optimizeQuality" fill-rule="evenodd" clip-rule="evenodd"><defs><style>.fil1{fill:#fefefe}</style></defs><g id="Слой_x0020_1"><path d="M414 0C185 0 0 185 0 414c0 230 185 415 414 415s415-185 415-415C829 185 643 0 414 0z" fill="#0070bd"/><g id="_858232960"><path class="fil1" d="M578 300h-10v-76c0-8-6-14-13-14H374c-8 0-14 6-14 14v76h-18v-9c0-7-6-14-14-14h-90c-8 0-14 7-14 14v272c0 7 6 13 14 13h32v9c0 20 17 36 38 36h86c21 0 39-17 39-38v-29h145c8 0 14-7 14-14V314c0-8-6-14-14-14zm-191-62h154v62H387v-62zm-135 67h63v244h-63V305zm153 278c0 6-5 11-11 11h-86c-6 0-11-4-11-9v-9h31c8 0 14-6 14-13v-9h63v29zm160-57H342V327h223v199z"/><path class="fil1" d="M509 395h23c8 0 14-6 14-13 0-8-6-14-14-14h-23c-7 0-13 6-13 14 0 7 6 13 13 13zM442 395h22c8 0 14-6 14-13 0-8-6-14-14-14h-22c-8 0-14 6-14 14 0 7 6 13 14 13zM374 395h22c8 0 14-6 14-13 0-8-6-14-14-14h-22c-8 0-14 6-14 14 0 7 6 13 14 13zM509 441h23c8 0 14-7 14-14 0-8-6-14-14-14h-23c-7 0-13 6-13 14 0 7 6 14 13 14zM442 441h22c8 0 14-7 14-14 0-8-6-14-14-14h-22c-8 0-14 6-14 14 0 7 6 14 14 14zM374 441h22c8 0 14-7 14-14 0-8-6-14-14-14h-22c-8 0-14 6-14 14 0 7 6 14 14 14zM509 486h23c8 0 14-6 14-14s-6-14-14-14h-23c-7 0-13 6-13 14s6 14 13 14zM442 486h22c8 0 14-6 14-14s-6-14-14-14h-22c-8 0-14 6-14 14s6 14 14 14zM374 486h22c8 0 14-6 14-14s-6-14-14-14h-22c-8 0-14 6-14 14s6 14 14 14zM509 255h-90c-8 0-14 6-14 14 0 7 6 13 14 13h90c8 0 14-6 14-13 0-8-6-14-14-14z"/></g></g></svg>