<svg xmlns="http://www.w3.org/2000/svg" width="32" height="32" viewBox="0 0 847 847" shape-rendering="geometricPrecision" text-rendering="geometricPrecision" image-rendering="optimizeQuality" fill-rule="evenodd" clip-rule="evenodd"><path d="M423 8C194 8 8 194 8 423c0 230 186 415 415 415s415-185 415-415C838 194 652 8 423 8z" fill="#0070bd"/><g><path d="M626 237H237c-22 0-41 19-41 42v276c0 23 19 41 41 41h389c23 0 42-18 42-41V279c0-23-19-42-42-42zm-5 28L433 453 243 265h378zM224 549V284l133 132-133 133zm19 20l133-133 47 46c5 5 14 5 20 0l45-46 133 133H243zm397-20L508 417l132-133v265z" fill="#fff"/></g></svg>