<svg xmlns="http://www.w3.org/2000/svg" width="320" height="320" viewBox="0 0 8467 8467" shape-rendering="geometricPrecision" text-rendering="geometricPrecision" image-rendering="optimizeQuality" fill-rule="evenodd" clip-rule="evenodd"><defs><style>.fil0{fill:#0071bc}</style></defs><g id="Слой_x0020_1"><circle class="fil0" cx="4233" cy="4233" r="3844" stroke="#0071bc" stroke-width="169.33"/><circle cx="4233" cy="4233" r="3446" fill="#0071bc" stroke="#fff" stroke-width="169.33"/><path d="M4041 2114c-1155 84-2138 1130-1966 2421 41 310 147 585 286 817 153 256 311 417 514 586 172 143 455 297 727 374 178 50 145 12 183 89 136 280 569 362 798 57 22-30 33-67 51-91 20-28 135-46 205-67 910-281 1523-1137 1506-2092-22-1197-1048-2185-2304-2094z" fill="none"/><path d="M3731 6242c-12-164 11-208 66-338l248-560c50-110 89-260 156-260 66 0 103 143 153 253l248 560c57 133 81 178 69 344 509-92 958-477 1161-756 277-382 477-879 399-1489-126-979-956-1790-2030-1790-1617 0-2674 1842-1631 3280 130 179 290 328 487 461 171 115 425 253 674 295z" fill="#fefefe"/><path class="fil0" d="M4124 3620c-374 51-606 389-555 717 49 318 329 602 722 547 320-45 596-351 542-721-47-316-338-594-709-543z"/><path class="fil0" d="M4122 3720c-271 43-506 291-457 618 39 260 302 497 619 447 266-43 498-291 450-615-40-268-299-500-612-450z"/><path d="M4201 5247c-35 46-270 600-317 704-62 140-90 264-9 410 218 394 889 144 645-403-44-99-289-672-319-711z" fill="#fff" stroke="#fff" stroke-width="7.62"/><path d="M4453 4209c-37 60-15 128-75 197-100 117-304 102-374-31-47-87-14-188-115-165-65 108 69 395 342 373 265-22 401-408 222-374z" fill="#fff"/><path class="fil0" d="M2625 4833c24-59-19-140-34-206-11-51-27-212-103-143-37 33 6 168 19 216 23 84 24 171 118 133zM2457 4267c118 73 91-111 98-180s26-121 5-175c-97-21-88 36-99 123-8 70-23 163-4 232zM2755 3391c-80-53-103 34-136 103-17 37-83 168-69 204 18 45 68 37 90 0 12-19 30-75 41-101 24-56 87-145 74-206zM3257 2848c69 17 131-42 196-75 37-19 206-74 126-135-42-31-168 45-206 66-66 36-150 56-116 144zM3108 2947c-54-30-67-25-166 83-41 46-136 123-114 175 23 50 73 25 94-3 110-145 208-171 186-255zM3787 2632c53 11 112-7 164-17 67-13 82-73 31-96-22-10-269-7-195 113zM2688 5013c-66 27-17 94 4 128 21 36 54 114 111 85 55-28-1-95-20-126-21-34-46-107-95-87z"/></g></svg>