<svg xmlns="http://www.w3.org/2000/svg" width="320" height="320" viewBox="0 0 8467 8467" shape-rendering="geometricPrecision" text-rendering="geometricPrecision" image-rendering="optimizeQuality" fill-rule="evenodd" clip-rule="evenodd"><defs><style>.fil0{fill:#0071bc}.fil2{fill:#fff}</style></defs><g id="Слой_x0020_1"><circle class="fil0" cx="4233" cy="4233" r="3844" stroke="#0071bc" stroke-width="169.33"/><circle cx="4233" cy="4233" r="3446" fill="#0071bc" stroke="#fff" stroke-width="169.33"/><g id="_2093312360016"><path class="fil2" d="M4461 4265c5-81 9-164 40-231 44-94 85-104 114-142-17-23-116-77-40-224 142-276 559-242 414 42-73 144-186 153-248 209-27 23-47 47-75 68-62 48-89 100-97 210-6 81-28 183-27 261-18 98-16 133-72 206-30 40-93 93-164 108 2 197 54 1448 117 1520 20 21 273 9 317 9 328 0 692 8 1011 0 73-267 130-1208 133-1469 2-264-5-513-23-775-18-252-54-474-89-716-62-2-270 48-344 62-93 19-257 62-348 66 27-36 66-65 99-94 35-31 68-63 101-94l206-193c-31-35-108-71-131-110 62-59 215-138 259-186-5-64-27-144-37-211-12-79-12-153-19-234-44-4-58-13-81 21-17 25-27 42-44 67l-655 946 95-608-163 10 107-436-1937-2c-21 184-20 307-71 479-43 147-89 267-125 427-67 307-103 649-120 980-41 820 17 1282 119 2067 137 8 1287 13 1333-5 39-102 73-584 81-732 16-257 35-520 34-780-36-30-201-55-232-292-17-126-20-365-77-449-17-26-307-279-326-329-15-41 13-80 56-72 31 6 108 106 134 130 95 92 212 176 253 273 42 99 46 333 66 458 40 246 389 242 427-1 7-43 17-211 29-234z"/><path class="fil2" d="M5496 2986c34 27 119 83 133 110-27 29-154 112-196 144-48 36-166 110-195 145l746-219c-35-42-115-88-158-129 54-54 277-105 347-161-18-29-126-104-160-129-105-79-46-96-347 116-42 29-144 92-170 123z"/><path class="fil0" d="M4461 4265c21-1 42-5 48-5 47-1-11-1 36 5l-3 193c-1-78 21-180 27-261 8-110 35-162 97-210 28-21 48-45 75-68 62-56 175-65 248-209 145-284-272-318-414-42-76 147 23 201 40 224-29 38-70 48-114 142-31 67-35 150-40 231z"/><path class="fil2" d="M4814 2682l164-6c-8 75-106 397-94 426 52-79 362-546 376-592l-183 10c11-82 129-244 134-309h-280l-117 471z"/><path class="fil0" d="M4123 2472c-10 19-52 74 41 116 51 24 115 8 149-29 47-51-1-111-48-91-30 13-22 37-61 22-37-15-12-35-81-18z"/><path d="M5108 4490c66-25 28-73 36-142 5-41-5-27 31-31 24 74-40 189 73 175 29-52 19-101 19-173-44 49 21 192-56 157 46-19 30-20 30-158-10 13-16 1-16 74 0 18 3 46-3 59-17-20-2-104-5-138l-7 13c-13 42-2 68-5 108l-8 34c-4-9-2 2-4-19-8-73 24-172-43-142-47 20 6 97-33 169l-9 14z" fill="#eee"/></g></g></svg>