<svg xmlns="http://www.w3.org/2000/svg" width="320" height="320" viewBox="0 0 8467 8467" shape-rendering="geometricPrecision" text-rendering="geometricPrecision" image-rendering="optimizeQuality" fill-rule="evenodd" clip-rule="evenodd"><defs><style>.fil2,.fil3{fill:#0071bc;fill-rule:nonzero}.fil2{fill:#fff}</style></defs><g id="Слой_x0020_1"><circle cx="4233" cy="4233" r="3844" fill="#0071bc" stroke="#0071bc" stroke-width="169.33"/><circle cx="4233" cy="4250" r="3446" fill="#0071bc" stroke="#fff" stroke-width="169.33"/><path class="fil2" d="M2168 4828c0 268 15 473 111 661 67 130 204 146 357 146 1089 0 2096-1109 2246-1668 69-259 905-617 806-848-143-34-1258-271-2124-196-1040 91-1396 853-1396 1905z"/><path class="fil2" d="M4473 4650s252 227 547 55c515-300 349-433 676-930 345-524 629-260 617-626-11-366-2998-530-3590 88-1074 1121 697 1722 1750 1413z"/><path class="fil2" d="M4473 4650s25 324 113 540c0 0 113 21 138-59 0 0-53-162-105-481h-146z"/><path class="fil3" d="M3341 3004s45-14 124-32c40-9 89-20 145-30s120-20 190-27c70-6 147-11 228-8 82 3 169 12 256 44 43 16 87 40 124 75 18 17 34 37 47 60 12 21 22 41 33 62 41 84 76 173 105 263 58 180 91 370 85 549-2 90-14 176-36 255-21 80-50 152-85 215-17 32-36 60-54 87-19 26-37 51-57 72-19 22-37 42-56 58-18 18-34 34-50 46-16 13-30 25-43 35-13 9-24 16-33 23-18 12-28 19-28 19s9-8 25-23c9-7 19-16 30-26 12-11 25-24 39-38 15-14 29-31 45-50 17-17 32-39 49-61 33-46 67-99 95-161 29-62 54-132 70-208 16-77 25-159 25-244s-8-174-22-262c-15-89-38-178-65-265-28-88-61-173-99-255-9-20-19-42-29-60-9-17-21-33-35-46-28-28-64-49-102-65-76-31-159-43-237-50-78-6-153-6-222-3-139 5-255 19-335 31-81 11-127 20-127 20zM5313 4306s-4 10-13 26c-8 17-22 41-42 70-21 28-49 62-92 90-21 13-48 25-78 26-31 2-63-9-90-26-55-37-94-95-127-156-8-15-17-30-25-46-7-17-15-33-23-50-14-34-29-69-41-105-25-72-45-148-60-227-15-78-24-159-29-240-6-80-5-162 0-241 5-80 12-158 28-233 17-75 38-151 87-211 23-30 54-53 86-68 32-16 65-24 96-28 62-9 117-9 166-8s91 2 126 3c70 1 110 2 110 2s-10 1-29 3c-18 3-46 6-80 10-35 3-77 6-126 11-48 5-103 9-159 22-55 13-111 37-146 88-35 49-55 117-67 188-24 144-30 302-23 459 4 78 13 156 25 232s29 150 50 220c22 72 45 136 75 198 28 60 62 115 105 148 22 17 46 26 70 27 25 1 48-6 69-17 41-22 70-52 93-78s38-49 49-64c10-16 15-25 15-25zM2623 5538s17-19 50-49c16-15 36-34 60-53 24-20 51-43 81-66 62-45 133-99 215-148 40-25 82-53 125-78 44-24 89-48 133-72 46-23 90-48 136-69 45-21 91-40 134-60 44-19 86-37 126-54 41-16 80-29 116-42 144-50 242-77 242-77s-89 49-226 115c-34 16-71 34-110 52-39 20-79 42-122 62-42 21-85 44-130 65s-88 47-133 70c-44 23-89 47-133 70-43 24-85 48-126 71s-82 44-119 67c-37 22-72 42-105 61-32 20-62 38-88 54s-49 31-67 43c-19 12-34 21-44 28-10 6-15 10-15 10z"/></g></svg>