<svg xmlns="http://www.w3.org/2000/svg" width="320" height="320" viewBox="0 0 8467 8467" shape-rendering="geometricPrecision" text-rendering="geometricPrecision" image-rendering="optimizeQuality" fill-rule="evenodd" clip-rule="evenodd"><defs><style>.fil0{fill:#0071bc}.fil2{fill:#fff}</style></defs><g id="Слой_x0020_1"><circle class="fil0" cx="4233" cy="4233" r="3844" stroke="#0071bc" stroke-width="169.33"/><circle cx="4233" cy="4250" r="3446" fill="#0071bc" stroke="#fff" stroke-width="169.33"/><path class="fil2" d="M3746 3247c557 58 1298-199 1857-315 184-39 582-209 669 27 0 628-858 887-1240 1089-115 61-108 75-185 134-490 372-303 34-454 469-122 355-163 547-494 699-655 300-1331-217-1292-872 65-1080 1043-506 1139-1231zm-983 2679c840 455 2080-249 2055-504 41 656-79 723 180 694l-9-1087c-478 207-380 679-1123 867-653 166-1092-78-1407-424-808-887-226-2080 796-2334l50 364c-1474 394-868 2334 435 2059 750-158 685-915 1158-939 630-33 375 949 441 1441 6 50 146 39 157-14 59-288 31-876-21-1121-77-362-307-435-705-498 435-176 1982-825 1692-1657-329-526-1994 394-2607 316-500-63-507-256-1147 81-1001 528-1025 2170 55 2756z"/><path class="fil2" d="M2918 4067c230-188 493-303 794-332 167-113 247-240 250-379 370 14 676-63 1044-129 118-22 363-110 480-139l490-120c105-10 94 59 109 122-28 156 15 240-127 321l-527 324-1110 555c-45 459-199 773-489 905-72 103-179 159-341 138-156-11-298-58-407-194-385-305-498-651-166-1072z"/><path class="fil0" d="M3219 4189c7 116 6 262-37 337-58-59-61-147-168-113l-9 11c-1 104 230 185 6 404-42-67-97-111-196-78-7 140 69 26 139 167-1 97-69 79-24 164 139 39 53-149 216-162 207-16 109 180 243 123 66-184-221-219-241-229 29-44 69-127 96-180 205-3 233 145 351 55-4-100-18-52-106-83 112-88 190-184 331-238 72-27 157-66 229-52 77 15 154 62 224 1-8-106-21-46-105-77 28-42 169-190 217-222 170 66 142 206 214 151 23-26 38 38 18-68-8-39-74-91-87-125 156-23 626-132 578-312-119-64-69 116-453 195-100 21-212 26-301 64-106 46-111 106-171 153-39-52-3-57-58-107-127 30-21 76-52 195-93 79-323 110-435 187-24-118-35-207-144-177-8 62 47 137 43 275-71 55-123 87-245 88 20-173 37-242 14-443l-87 96z"/></g></svg>