<svg xmlns="http://www.w3.org/2000/svg" width="32" height="32" viewBox="0 0 847 847" shape-rendering="geometricPrecision" text-rendering="geometricPrecision" image-rendering="optimizeQuality" fill-rule="evenodd" clip-rule="evenodd"><path d="M423 8C194 8 8 194 8 423c0 230 186 415 415 415s415-185 415-415C838 194 652 8 423 8z" fill="#0070bd"/><path d="M640 532l-57-57c-15-16-41-16-57 0l-25 26c-12 12-32 12-43 0L346 389c-12-12-12-31 0-43 4-4 16-16 25-26 16-16 16-41 0-57l-56-56c-16-16-42-16-57-1l-21 21c-56 57-56 148 0 205l178 177c56 57 148 57 205 0l20-20c16-16 16-41 0-57zM277 225c5-5 13-5 19 0l56 57c6 5 6 14 0 19l-9 10-76-76 10-10zm156 366L256 413c-44-44-46-112-7-159l75 76c-20 22-19 56 3 78l112 112c21 21 55 22 78 2l75 76c-46 39-115 37-159-7zm188-21l-9 9-76-75 9-10c6-5 14-5 19 0l57 57c5 5 5 14 0 19z" fill="#fefefe"/></svg>