<svg xmlns="http://www.w3.org/2000/svg" width="512.001" height="511.986" viewBox="0 0 13547 13546" shape-rendering="geometricPrecision" text-rendering="geometricPrecision" image-rendering="optimizeQuality" fill-rule="evenodd" clip-rule="evenodd"><defs><style>.fil0{fill:#fefefe}</style></defs><g id="Слой_x0020_1"><g id="_184739856"><path class="fil0" d="M13199 1213c-328-434-829-684-1373-684h-231V397c0-219-177-397-397-397-219 0-397 178-397 397v1058c0 219 178 397 397 397 220 0 397-178 397-397v-132h231c293 0 562 134 739 368s232 530 151 812l-1053 3687c-294 1029-1247 1747-2317 1747s-2022-718-2316-1747L5977 2503c-81-282-26-578 151-812 176-234 446-368 739-368h230v132c0 219 178 397 397 397s397-178 397-397V397c0-219-178-397-397-397s-397 178-397 397v132h-230c-545 0-1045 250-1373 684-328 435-430 985-281 1508l1054 3687c192 675 590 1255 1151 1677 120 91 245 172 374 244l1157 2732v286c0 775-630 1406-1405 1406s-1406-631-1406-1406V8625c0-1254-1021-2275-2275-2275-1255 0-2276 1021-2276 2275v940C683 9749 0 10551 0 11509c0 1094 890 1984 1984 1984 1095 0 1985-890 1985-1984 0-958-683-1760-1588-1944v-940c0-817 665-1481 1482-1481s1481 664 1481 1481v2722c0 1213 987 2199 2200 2199s2199-986 2199-2199v-286l1158-2732c129-72 254-153 374-244 560-422 958-1002 1151-1677l1053-3687c150-523 48-1073-280-1508zM3175 11509c0 657-534 1191-1191 1191-656 0-1190-534-1190-1191 0-656 534-1191 1190-1191 657 0 1191 535 1191 1191zm6171-1546l-541-1278c177 30 358 46 541 46 184 0 364-16 541-46l-541 1278z"/><circle class="fil0" cx="1984" cy="11509" r="397"/></g></g></svg>