<svg width="30" height="30" fill="none" xmlns="http://www.w3.org/2000/svg"><path fill-rule="evenodd" clip-rule="evenodd" d="M15 30c8.284 0 15-6.716 15-15 0-8.284-6.716-15-15-15C6.716 0 0 6.716 0 15c0 8.284 6.716 15 15 15zm5.902-12.503c.457.443.915.886 1.322 1.383.246.309.459.645.634 1.002.254.508.025 1.064-.423 1.097H19.67a2.088 2.088 0 01-.964-.154 2.129 2.129 0 01-.794-.578 22.446 22.446 0 01-.904-.998 83.226 83.226 0 00-.203-.234 2.684 2.684 0 00-.498-.454.573.573 0 00-.52-.13.572.572 0 00-.4.36c-.198.41-.298.861-.29 1.317-.033.666-.23.841-.885.87a6.95 6.95 0 01-3.94-.866 8.816 8.816 0 01-2.665-2.56 34.546 34.546 0 01-3.506-6.377c-.233-.505-.058-.783.483-.783.611-.012 1.21-.008 1.808-.004.3.002.599.004.9.004.169 0 .333.057.469.16a.805.805 0 01.283.414 17.037 17.037 0 001.837 3.47c.182.301.416.565.692.78a.418.418 0 00.423.116.418.418 0 00.293-.332 2.41 2.41 0 00.161-.732c.084-.852.068-1.711-.046-2.56a1.072 1.072 0 00-.277-.646 1.032 1.032 0 00-.612-.326c-.265-.052-.225-.15-.096-.308a.982.982 0 01.849-.428h3.126c.491.103.602.326.67.834v3.555c-.004.197.086.775.444.907.255.088.443-.118.604-.293l.02-.022a11.025 11.025 0 001.758-2.76c.211-.436.394-.89.57-1.343a.687.687 0 01.27-.38.663.663 0 01.446-.113h3.008c.089-.008.177-.008.265 0 .509.084.645.31.491.815a7.687 7.687 0 01-1.185 2.118c-.23.32-.464.637-.698.953-.284.381-.567.763-.839 1.153-.458.654-.423.98.147 1.547.177.177.357.351.537.526z" fill="#fff"/></svg>